<svg xmlns="http://www.w3.org/2000/svg" xmlns:xlink="http://www.w3.org/1999/xlink" width="500" zoomAndPan="magnify" viewBox="0 0 375 374.999991" height="500" preserveAspectRatio="xMidYMid meet" version="1.0"><defs><g/><clipPath id="b7b8fde273"><path d="M 25.445312 116.761719 L 166.445312 116.761719 L 166.445312 266.761719 L 25.445312 266.761719 Z M 25.445312 116.761719 " clip-rule="nonzero"/></clipPath><clipPath id="0b90a5ed74"><path d="M 301 169 L 325 169 L 325 209 L 301 209 Z M 301 169 " clip-rule="nonzero"/></clipPath><clipPath id="7dbd7c2fa3"><path d="M 335.273438 200.632812 L 302.578125 215.699219 L 285.3125 178.238281 L 318.007812 163.171875 Z M 335.273438 200.632812 " clip-rule="nonzero"/></clipPath><clipPath id="03ce41f795"><path d="M 335.273438 200.632812 L 302.578125 215.699219 L 285.3125 178.238281 L 318.007812 163.171875 Z M 335.273438 200.632812 " clip-rule="nonzero"/></clipPath><clipPath id="288bd0518d"><path d="M 293 169 L 311 169 L 311 208 L 293 208 Z M 293 169 " clip-rule="nonzero"/></clipPath><clipPath id="985fc5408f"><path d="M 335.273438 200.632812 L 302.578125 215.699219 L 285.3125 178.238281 L 318.007812 163.171875 Z M 335.273438 200.632812 " clip-rule="nonzero"/></clipPath><clipPath id="d37f325796"><path d="M 335.273438 200.632812 L 302.578125 215.699219 L 285.3125 178.238281 L 318.007812 163.171875 Z M 335.273438 200.632812 " clip-rule="nonzero"/></clipPath></defs><g fill="#ffffff" fill-opacity="1"><g transform="translate(129.838637, 208.339898)"><g><path d="M 22.195312 -35.128906 L 22.195312 -38.109375 C 22.195312 -38.542969 22.03125 -38.867188 21.707031 -39.191406 C 21.382812 -39.515625 21.058594 -39.679688 20.625 -39.679688 L 4.277344 -39.679688 C 3.84375 -39.679688 3.464844 -39.515625 3.140625 -39.191406 C 2.816406 -38.867188 2.707031 -38.542969 2.707031 -38.109375 L 2.707031 -1.570312 C 2.707031 -1.136719 2.816406 -0.757812 3.140625 -0.433594 C 3.464844 -0.109375 3.84375 0 4.277344 0 L 20.625 0 C 21.058594 0 21.382812 -0.109375 21.707031 -0.433594 C 22.03125 -0.757812 22.195312 -1.136719 22.195312 -1.570312 L 22.195312 -4.546875 C 22.195312 -4.980469 22.03125 -5.304688 21.707031 -5.628906 C 21.382812 -5.953125 21.058594 -6.117188 20.625 -6.117188 L 10.394531 -6.117188 C 9.960938 -6.117188 9.582031 -6.226562 9.257812 -6.550781 C 8.929688 -6.875 8.824219 -7.253906 8.824219 -7.6875 L 8.824219 -19.488281 C 8.824219 -19.921875 8.929688 -20.246094 9.257812 -20.570312 C 9.582031 -20.894531 9.960938 -21.058594 10.394531 -21.058594 L 17.160156 -21.058594 C 17.59375 -21.058594 17.972656 -21.21875 18.296875 -21.542969 C 18.621094 -21.867188 18.785156 -22.246094 18.785156 -22.679688 L 18.785156 -25.605469 C 18.785156 -26.035156 18.621094 -26.363281 18.296875 -26.6875 C 17.972656 -27.011719 17.59375 -27.171875 17.160156 -27.171875 L 10.394531 -27.171875 C 9.960938 -27.171875 9.582031 -27.28125 9.257812 -27.605469 C 8.929688 -27.929688 8.824219 -28.308594 8.824219 -28.742188 L 8.824219 -31.992188 C 8.824219 -32.425781 8.929688 -32.75 9.257812 -33.074219 C 9.582031 -33.398438 9.960938 -33.5625 10.394531 -33.5625 L 20.625 -33.5625 C 21.058594 -33.5625 21.382812 -33.667969 21.707031 -33.992188 C 22.03125 -34.320312 22.195312 -34.699219 22.195312 -35.128906 Z M 22.195312 -35.128906 "/></g></g></g><g fill="#ffffff" fill-opacity="1"><g transform="translate(154.736997, 208.339898)"><g><path d="M 17.753906 0 C 22.734375 0 26.632812 -2.058594 29.394531 -6.277344 C 31.667969 -9.796875 32.804688 -14.289062 32.804688 -19.8125 C 32.804688 -22.519531 32.476562 -25.007812 31.9375 -27.28125 C 31.339844 -29.554688 30.476562 -31.613281 29.394531 -33.34375 C 26.632812 -37.566406 22.734375 -39.679688 17.753906 -39.679688 C 12.71875 -39.679688 8.824219 -37.566406 6.117188 -33.34375 C 4.980469 -31.613281 4.113281 -29.554688 3.574219 -27.28125 C 2.976562 -25.007812 2.707031 -22.519531 2.707031 -19.8125 C 2.707031 -14.289062 3.84375 -9.796875 6.117188 -6.277344 C 8.824219 -2.058594 12.71875 0 17.753906 0 Z M 17.753906 -33.5625 C 19.109375 -33.5625 20.300781 -33.289062 21.273438 -32.75 C 22.246094 -32.207031 23.058594 -31.558594 23.710938 -30.691406 C 24.359375 -29.824219 24.898438 -28.90625 25.332031 -27.878906 C 25.710938 -26.847656 25.984375 -25.820312 26.199219 -24.792969 C 26.414062 -23.761719 26.523438 -22.789062 26.578125 -21.921875 C 26.632812 -21.058594 26.6875 -20.351562 26.6875 -19.8125 C 26.6875 -19.269531 26.632812 -18.511719 26.578125 -17.648438 C 26.523438 -16.78125 26.414062 -15.804688 26.199219 -14.832031 C 25.984375 -13.804688 25.710938 -12.773438 25.332031 -11.746094 C 24.898438 -10.71875 24.359375 -9.796875 23.710938 -8.929688 C 23.058594 -8.066406 22.246094 -7.414062 21.273438 -6.875 C 20.300781 -6.332031 19.109375 -6.117188 17.753906 -6.117188 C 16.347656 -6.117188 15.210938 -6.332031 14.238281 -6.875 C 13.261719 -7.414062 12.394531 -8.066406 11.746094 -8.929688 C 11.097656 -9.796875 10.554688 -10.71875 10.175781 -11.746094 C 9.742188 -12.773438 9.472656 -13.804688 9.257812 -14.832031 C 9.039062 -15.804688 8.929688 -16.78125 8.878906 -17.648438 C 8.824219 -18.511719 8.824219 -19.269531 8.824219 -19.8125 C 8.824219 -20.351562 8.824219 -21.058594 8.878906 -21.921875 C 8.929688 -22.789062 9.039062 -23.761719 9.257812 -24.792969 C 9.472656 -25.820312 9.742188 -26.847656 10.175781 -27.878906 C 10.554688 -28.90625 11.097656 -29.824219 11.746094 -30.691406 C 12.394531 -31.558594 13.261719 -32.207031 14.238281 -32.75 C 15.210938 -33.289062 16.347656 -33.5625 17.753906 -33.5625 Z M 17.753906 -33.5625 "/></g></g></g><g fill="#ffffff" fill-opacity="1"><g transform="translate(190.244232, 208.339898)"><g/></g></g><g fill="#ffffff" fill-opacity="1"><g transform="translate(206.482297, 208.339898)"><g><path d="M 24.738281 0 L 27.824219 0 C 28.308594 0 28.742188 -0.164062 29.066406 -0.59375 C 29.394531 -1.027344 29.445312 -1.460938 29.339844 -2.003906 C 29.066406 -2.921875 28.851562 -3.625 28.742188 -4.167969 C 28.636719 -4.65625 28.527344 -5.089844 28.417969 -5.519531 C 28.308594 -5.898438 28.148438 -6.332031 28.039062 -6.765625 C 27.929688 -7.199219 27.714844 -7.847656 27.5 -8.714844 C 27.28125 -9.582031 26.957031 -10.71875 26.578125 -12.125 C 26.199219 -13.53125 25.710938 -15.375 25.117188 -17.699219 C 24.46875 -19.972656 23.710938 -22.84375 22.789062 -26.253906 C 21.867188 -29.609375 20.785156 -33.722656 19.542969 -38.488281 C 19.433594 -38.8125 19.269531 -39.136719 19 -39.351562 C 18.675781 -39.570312 18.351562 -39.679688 18.027344 -39.679688 L 14.128906 -39.679688 C 13.75 -39.679688 13.425781 -39.570312 13.152344 -39.351562 C 12.828125 -39.136719 12.667969 -38.8125 12.613281 -38.488281 C 12.289062 -37.457031 11.910156 -36.050781 11.421875 -34.210938 C 10.933594 -32.371094 10.394531 -30.367188 9.796875 -28.09375 C 9.203125 -25.820312 8.550781 -23.4375 7.902344 -20.949219 C 7.253906 -18.457031 6.605469 -16.023438 5.953125 -13.640625 C 5.304688 -11.257812 4.710938 -9.09375 4.167969 -7.035156 C 3.625 -4.980469 3.140625 -3.300781 2.816406 -2.003906 C 2.652344 -1.460938 2.761719 -1.027344 3.085938 -0.59375 C 3.410156 -0.164062 3.789062 0 4.332031 0 L 7.414062 0 C 8.171875 0 8.660156 -0.378906 8.929688 -1.191406 C 9.09375 -1.730469 9.257812 -2.4375 9.472656 -3.246094 C 9.6875 -4.003906 9.90625 -4.925781 10.175781 -5.898438 C 10.394531 -6.65625 10.933594 -7.089844 11.746094 -7.089844 L 20.40625 -7.089844 C 21.164062 -7.089844 21.707031 -6.65625 21.976562 -5.898438 C 22.300781 -4.601562 22.519531 -3.625 22.734375 -2.867188 C 22.953125 -2.109375 23.113281 -1.570312 23.222656 -1.191406 C 23.4375 -0.378906 23.980469 0 24.738281 0 Z M 12.667969 -15.210938 C 12.992188 -16.347656 13.261719 -17.484375 13.585938 -18.675781 C 13.910156 -19.8125 14.238281 -20.949219 14.5625 -22.140625 C 14.667969 -22.519531 14.832031 -22.789062 15.15625 -23.003906 C 15.425781 -23.222656 15.753906 -23.332031 16.078125 -23.332031 C 16.402344 -23.332031 16.671875 -23.222656 16.996094 -23.003906 C 17.269531 -22.789062 17.484375 -22.519531 17.59375 -22.140625 C 17.917969 -20.839844 18.242188 -19.59375 18.566406 -18.457031 C 18.890625 -17.269531 19.164062 -16.183594 19.488281 -15.210938 C 19.59375 -14.667969 19.542969 -14.238281 19.214844 -13.804688 C 18.890625 -13.371094 18.457031 -13.207031 17.972656 -13.207031 L 14.183594 -13.207031 C 13.640625 -13.207031 13.261719 -13.371094 12.9375 -13.804688 C 12.613281 -14.238281 12.503906 -14.667969 12.667969 -15.210938 Z M 12.667969 -15.210938 "/></g></g></g><g fill="#ffffff" fill-opacity="1"><g transform="translate(238.633658, 208.339898)"><g><path d="M 24.195312 -39.679688 L 21.273438 -39.679688 C 20.839844 -39.679688 20.460938 -39.515625 20.136719 -39.191406 C 19.8125 -38.867188 19.648438 -38.542969 19.648438 -38.109375 L 19.648438 -11.367188 C 19.648438 -9.851562 19.109375 -8.605469 18.132812 -7.632812 C 17.105469 -6.605469 15.859375 -6.117188 14.398438 -6.117188 C 13.640625 -6.117188 12.882812 -6.226562 12.234375 -6.550781 C 11.53125 -6.820312 10.933594 -7.199219 10.445312 -7.742188 C 9.90625 -8.226562 9.527344 -8.824219 9.257812 -9.527344 C 8.929688 -10.175781 8.824219 -10.933594 8.824219 -11.691406 L 8.824219 -38.109375 C 8.824219 -38.542969 8.660156 -38.867188 8.335938 -39.191406 C 8.011719 -39.515625 7.632812 -39.679688 7.199219 -39.679688 L 4.277344 -39.679688 C 3.84375 -39.679688 3.464844 -39.515625 3.140625 -39.191406 C 2.816406 -38.867188 2.707031 -38.542969 2.707031 -38.109375 L 2.707031 -11.53125 C 2.707031 -9.90625 2.976562 -8.445312 3.625 -7.035156 C 4.222656 -5.628906 5.035156 -4.4375 6.117188 -3.410156 C 7.144531 -2.328125 8.335938 -1.515625 9.742188 -0.921875 C 11.152344 -0.269531 12.613281 0 14.238281 0 C 15.804688 0 17.320312 -0.269531 18.730469 -0.867188 C 20.136719 -1.460938 21.328125 -2.273438 22.410156 -3.355469 C 23.4375 -4.382812 24.25 -5.628906 24.847656 -7.035156 C 25.441406 -8.445312 25.765625 -9.90625 25.765625 -11.53125 L 25.765625 -38.109375 C 25.765625 -38.542969 25.605469 -38.867188 25.277344 -39.191406 C 24.953125 -39.515625 24.628906 -39.679688 24.195312 -39.679688 Z M 24.195312 -39.679688 "/></g></g></g><g fill="#ffffff" fill-opacity="1"><g transform="translate(267.104395, 208.339898)"><g><path d="M 25.0625 -35.128906 L 25.0625 -38.109375 C 25.0625 -38.542969 24.898438 -38.867188 24.574219 -39.191406 C 24.25 -39.515625 23.871094 -39.679688 23.4375 -39.679688 L 4.277344 -39.679688 C 3.84375 -39.679688 3.464844 -39.515625 3.140625 -39.191406 C 2.816406 -38.867188 2.707031 -38.542969 2.707031 -38.109375 L 2.707031 -35.128906 C 2.707031 -34.699219 2.816406 -34.320312 3.140625 -33.992188 C 3.464844 -33.667969 3.84375 -33.5625 4.277344 -33.5625 L 9.257812 -33.5625 C 9.6875 -33.5625 10.015625 -33.398438 10.339844 -33.074219 C 10.664062 -32.75 10.824219 -32.425781 10.824219 -31.992188 L 10.824219 -1.570312 C 10.824219 -1.136719 10.933594 -0.757812 11.257812 -0.433594 C 11.582031 -0.109375 11.960938 0 12.394531 0 L 15.320312 0 C 15.753906 0 16.132812 -0.109375 16.457031 -0.433594 C 16.78125 -0.757812 16.941406 -1.136719 16.941406 -1.570312 L 16.941406 -31.992188 C 16.941406 -32.425781 17.050781 -32.75 17.375 -33.074219 C 17.699219 -33.398438 18.078125 -33.5625 18.511719 -33.5625 L 23.4375 -33.5625 C 23.871094 -33.5625 24.25 -33.667969 24.574219 -33.992188 C 24.898438 -34.320312 25.0625 -34.699219 25.0625 -35.128906 Z M 25.0625 -35.128906 "/></g></g></g><g clip-path="url(#b7b8fde273)"><path fill="#ff7a00" d="M 160.300781 234.839844 C 162.585938 231.589844 164.617188 228.144531 166.371094 224.539062 L 152.691406 224.539062 C 143.046875 236.625 128.195312 244.367188 111.535156 244.367188 C 82.46875 244.367188 58.90625 220.808594 58.90625 191.742188 C 58.90625 162.679688 82.46875 139.117188 111.535156 139.117188 C 128.210938 139.117188 143.074219 146.875 152.714844 158.980469 L 166.371094 158.980469 C 163.328125 152.730469 159.449219 146.96875 154.871094 141.839844 L 148.792969 147.308594 L 145.539062 143.6875 L 151.511719 138.3125 C 146.023438 132.910156 139.707031 128.34375 132.769531 124.828125 L 127.65625 136.304688 L 123.210938 134.324219 L 128.355469 122.769531 C 120.757812 119.519531 112.515625 117.492188 103.875 116.929688 L 103.875 134.847656 L 99.003906 134.847656 L 99.003906 116.761719 C 98.972656 116.761719 98.9375 116.761719 98.90625 116.761719 C 90.910156 116.761719 83.207031 118.015625 75.980469 120.332031 L 72.996094 123.964844 L 81.554688 143.191406 L 77.105469 145.171875 L 67.515625 123.628906 C 62.136719 126.113281 57.101562 129.210938 52.5 132.835938 L 48.917969 145.8125 L 64.558594 159.894531 L 61.300781 163.511719 L 43.421875 147.414062 L 45.804688 138.796875 C 41.472656 143.140625 37.671875 148.011719 34.503906 153.304688 C 33.964844 154.386719 33.445312 155.476562 32.949219 156.582031 L 35.808594 175.558594 L 55.824219 182.0625 L 54.320312 186.695312 L 31.441406 179.261719 L 29.421875 165.859375 C 26.855469 174.007812 25.46875 182.679688 25.460938 191.671875 L 35.929688 208.070312 L 56.863281 205.871094 L 57.371094 210.710938 L 33.449219 213.226562 L 26.023438 201.605469 C 27.042969 210.542969 29.429688 219.066406 32.972656 226.960938 L 49.265625 237.71875 L 67.492188 227.195312 L 69.929688 231.414062 L 49.097656 243.4375 L 38.820312 236.652344 C 45.265625 245.269531 53.527344 252.453125 63.027344 257.636719 L 73.511719 259.378906 L 85.878906 242.351562 L 89.820312 245.214844 L 76.613281 263.390625 C 83.65625 265.582031 91.140625 266.761719 98.90625 266.761719 C 100.976562 266.761719 103.03125 266.671875 105.0625 266.507812 L 108.84375 248.722656 L 113.605469 249.734375 L 110.164062 265.917969 C 119.058594 264.578125 127.441406 261.675781 135.023438 257.5 L 132.410156 245.199219 L 137.171875 244.1875 L 139.441406 254.871094 C 146.191406 250.523438 152.199219 245.125 157.230469 238.902344 L 152.507812 232.398438 L 156.445312 229.539062 Z M 111.90625 145.859375 C 99.636719 145.859375 88.496094 150.671875 80.261719 158.511719 C 87.160156 153.378906 95.710938 150.339844 104.96875 150.339844 C 114.507812 150.339844 123.289062 153.5625 130.292969 158.980469 L 144.03125 158.980469 C 135.753906 150.863281 124.414062 145.859375 111.90625 145.859375 Z M 104.96875 233.183594 C 95.710938 233.183594 87.160156 230.144531 80.261719 225.007812 C 88.496094 232.847656 99.636719 237.660156 111.90625 237.660156 C 124.414062 237.660156 135.753906 232.65625 144.03125 224.539062 L 130.289062 224.539062 C 123.289062 229.957031 114.507812 233.183594 104.96875 233.183594 " fill-opacity="1" fill-rule="nonzero"/></g><g fill="#ffffff" fill-opacity="1"><g transform="translate(69.776717, 221.485884)"><g><path d="M 56.03125 -6.8125 C 53.769531 -5.226562 51.644531 -3.921875 49.65625 -2.890625 C 47.664062 -1.867188 45.734375 -1.066406 43.859375 -0.484375 C 41.984375 0.0976562 40.132812 0.503906 38.3125 0.734375 C 36.5 0.972656 34.640625 1.09375 32.734375 1.09375 C 28.578125 1.09375 24.753906 0.378906 21.265625 -1.046875 C 17.785156 -2.484375 14.773438 -4.59375 12.234375 -7.375 C 9.703125 -10.164062 7.722656 -13.585938 6.296875 -17.640625 C 4.878906 -21.703125 4.171875 -26.367188 4.171875 -31.640625 C 4.171875 -36.910156 4.960938 -41.625 6.546875 -45.78125 C 8.128906 -49.945312 10.289062 -53.472656 13.03125 -56.359375 C 15.769531 -59.242188 18.976562 -61.445312 22.65625 -62.96875 C 26.332031 -64.5 30.28125 -65.265625 34.5 -65.265625 C 36.28125 -65.265625 38.003906 -65.179688 39.671875 -65.015625 C 41.347656 -64.859375 43.023438 -64.554688 44.703125 -64.109375 C 46.390625 -63.671875 48.101562 -63.050781 49.84375 -62.25 C 51.59375 -61.445312 53.4375 -60.398438 55.375 -59.109375 L 52.515625 -51.203125 C 50.867188 -52.515625 49.273438 -53.601562 47.734375 -54.46875 C 46.203125 -55.332031 44.703125 -56.003906 43.234375 -56.484375 C 41.773438 -56.972656 40.316406 -57.3125 38.859375 -57.5 C 37.410156 -57.6875 35.957031 -57.78125 34.5 -57.78125 C 31.15625 -57.78125 28.132812 -57.191406 25.4375 -56.015625 C 22.75 -54.847656 20.46875 -53.179688 18.59375 -51.015625 C 16.71875 -48.847656 15.273438 -46.21875 14.265625 -43.125 C 13.253906 -40.039062 12.75 -36.578125 12.75 -32.734375 C 12.75 -28.691406 13.222656 -25.054688 14.171875 -21.828125 C 15.117188 -18.609375 16.488281 -15.863281 18.28125 -13.59375 C 20.070312 -11.332031 22.234375 -9.597656 24.765625 -8.390625 C 27.296875 -7.191406 30.128906 -6.59375 33.265625 -6.59375 C 34.585938 -6.59375 35.828125 -6.65625 36.984375 -6.78125 C 38.140625 -6.914062 39.285156 -7.144531 40.421875 -7.46875 C 41.566406 -7.789062 42.722656 -8.210938 43.890625 -8.734375 C 45.066406 -9.265625 46.332031 -9.941406 47.6875 -10.765625 L 47.6875 -25.484375 L 32.296875 -25.484375 L 32.296875 -32.734375 L 56.03125 -32.734375 Z M 56.03125 -6.8125 "/></g></g></g><g fill="#ffffff" fill-opacity="1"><g transform="translate(178.027361, 221.154405)"><g><path d="M 4.859375 -5.453125 C 4.816406 -5.816406 4.644531 -6.097656 4.34375 -6.296875 C 4.039062 -6.492188 3.664062 -6.59375 3.21875 -6.59375 C 2.738281 -6.59375 2.351562 -6.476562 2.0625 -6.25 C 1.769531 -6.019531 1.625 -5.734375 1.625 -5.390625 C 1.625 -5.128906 1.703125 -4.914062 1.859375 -4.75 C 2.015625 -4.59375 2.203125 -4.46875 2.421875 -4.375 C 2.640625 -4.289062 2.84375 -4.222656 3.03125 -4.171875 L 3.765625 -3.984375 C 3.953125 -3.929688 4.160156 -3.859375 4.390625 -3.765625 C 4.628906 -3.679688 4.851562 -3.5625 5.0625 -3.40625 C 5.28125 -3.257812 5.457031 -3.066406 5.59375 -2.828125 C 5.738281 -2.597656 5.8125 -2.3125 5.8125 -1.96875 C 5.8125 -1.582031 5.707031 -1.226562 5.5 -0.90625 C 5.300781 -0.59375 5.003906 -0.34375 4.609375 -0.15625 C 4.210938 0.03125 3.738281 0.125 3.1875 0.125 C 2.40625 0.125 1.78125 -0.0546875 1.3125 -0.421875 C 0.851562 -0.796875 0.601562 -1.28125 0.5625 -1.875 L 1.484375 -1.875 C 1.503906 -1.601562 1.59375 -1.375 1.75 -1.1875 C 1.914062 -1.007812 2.125 -0.878906 2.375 -0.796875 C 2.625 -0.710938 2.894531 -0.671875 3.1875 -0.671875 C 3.519531 -0.671875 3.816406 -0.722656 4.078125 -0.828125 C 4.347656 -0.941406 4.5625 -1.097656 4.71875 -1.296875 C 4.875 -1.492188 4.953125 -1.722656 4.953125 -1.984375 C 4.953125 -2.222656 4.882812 -2.421875 4.75 -2.578125 C 4.613281 -2.734375 4.4375 -2.859375 4.21875 -2.953125 C 4 -3.046875 3.765625 -3.128906 3.515625 -3.203125 L 2.609375 -3.453125 C 2.046875 -3.617188 1.597656 -3.851562 1.265625 -4.15625 C 0.929688 -4.457031 0.765625 -4.851562 0.765625 -5.34375 C 0.765625 -5.75 0.875 -6.101562 1.09375 -6.40625 C 1.320312 -6.707031 1.625 -6.941406 2 -7.109375 C 2.375 -7.285156 2.789062 -7.375 3.25 -7.375 C 3.71875 -7.375 4.132812 -7.289062 4.5 -7.125 C 4.863281 -6.957031 5.148438 -6.726562 5.359375 -6.4375 C 5.578125 -6.144531 5.691406 -5.816406 5.703125 -5.453125 Z M 4.859375 -5.453125 "/></g></g></g><g fill="#ffffff" fill-opacity="1"><g transform="translate(188.872818, 221.154405)"><g><path d="M 1.171875 0 L 0.25 0 L 2.921875 -7.265625 L 3.828125 -7.265625 L 6.5 0 L 5.578125 0 L 4.84375 -2.0625 L 1.90625 -2.0625 Z M 2.1875 -2.84375 L 4.578125 -2.84375 L 3.40625 -6.125 L 3.359375 -6.125 Z M 2.1875 -2.84375 "/></g></g></g><g fill="#ffffff" fill-opacity="1"><g transform="translate(200.101652, 221.154405)"><g><path d="M 0.875 0 L 0.875 -7.265625 L 1.765625 -7.265625 L 1.765625 -0.78125 L 5.140625 -0.78125 L 5.140625 0 Z M 0.875 0 "/></g></g></g><g fill="#ffffff" fill-opacity="1"><g transform="translate(210.194546, 221.154405)"><g><path d="M 0.875 0 L 0.875 -7.265625 L 5.265625 -7.265625 L 5.265625 -6.484375 L 1.765625 -6.484375 L 1.765625 -4.03125 L 5.046875 -4.03125 L 5.046875 -3.25 L 1.765625 -3.25 L 1.765625 -0.78125 L 5.328125 -0.78125 L 5.328125 0 Z M 0.875 0 "/></g></g></g><g fill="#ffffff" fill-opacity="1"><g transform="translate(220.642424, 221.154405)"><g><path d="M 4.859375 -5.453125 C 4.816406 -5.816406 4.644531 -6.097656 4.34375 -6.296875 C 4.039062 -6.492188 3.664062 -6.59375 3.21875 -6.59375 C 2.738281 -6.59375 2.351562 -6.476562 2.0625 -6.25 C 1.769531 -6.019531 1.625 -5.734375 1.625 -5.390625 C 1.625 -5.128906 1.703125 -4.914062 1.859375 -4.75 C 2.015625 -4.59375 2.203125 -4.46875 2.421875 -4.375 C 2.640625 -4.289062 2.84375 -4.222656 3.03125 -4.171875 L 3.765625 -3.984375 C 3.953125 -3.929688 4.160156 -3.859375 4.390625 -3.765625 C 4.628906 -3.679688 4.851562 -3.5625 5.0625 -3.40625 C 5.28125 -3.257812 5.457031 -3.066406 5.59375 -2.828125 C 5.738281 -2.597656 5.8125 -2.3125 5.8125 -1.96875 C 5.8125 -1.582031 5.707031 -1.226562 5.5 -0.90625 C 5.300781 -0.59375 5.003906 -0.34375 4.609375 -0.15625 C 4.210938 0.03125 3.738281 0.125 3.1875 0.125 C 2.40625 0.125 1.78125 -0.0546875 1.3125 -0.421875 C 0.851562 -0.796875 0.601562 -1.28125 0.5625 -1.875 L 1.484375 -1.875 C 1.503906 -1.601562 1.59375 -1.375 1.75 -1.1875 C 1.914062 -1.007812 2.125 -0.878906 2.375 -0.796875 C 2.625 -0.710938 2.894531 -0.671875 3.1875 -0.671875 C 3.519531 -0.671875 3.816406 -0.722656 4.078125 -0.828125 C 4.347656 -0.941406 4.5625 -1.097656 4.71875 -1.296875 C 4.875 -1.492188 4.953125 -1.722656 4.953125 -1.984375 C 4.953125 -2.222656 4.882812 -2.421875 4.75 -2.578125 C 4.613281 -2.734375 4.4375 -2.859375 4.21875 -2.953125 C 4 -3.046875 3.765625 -3.128906 3.515625 -3.203125 L 2.609375 -3.453125 C 2.046875 -3.617188 1.597656 -3.851562 1.265625 -4.15625 C 0.929688 -4.457031 0.765625 -4.851562 0.765625 -5.34375 C 0.765625 -5.75 0.875 -6.101562 1.09375 -6.40625 C 1.320312 -6.707031 1.625 -6.941406 2 -7.109375 C 2.375 -7.285156 2.789062 -7.375 3.25 -7.375 C 3.71875 -7.375 4.132812 -7.289062 4.5 -7.125 C 4.863281 -6.957031 5.148438 -6.726562 5.359375 -6.4375 C 5.578125 -6.144531 5.691406 -5.816406 5.703125 -5.453125 Z M 4.859375 -5.453125 "/></g></g></g><g fill="#ffffff" fill-opacity="1"><g transform="translate(231.487883, 221.154405)"><g><path d="M 2.828125 0.09375 C 2.347656 0.09375 1.9375 0.0078125 1.59375 -0.15625 C 1.25 -0.332031 0.984375 -0.570312 0.796875 -0.875 C 0.609375 -1.1875 0.515625 -1.539062 0.515625 -1.9375 C 0.515625 -2.375 0.644531 -2.742188 0.90625 -3.046875 C 1.175781 -3.347656 1.523438 -3.648438 1.953125 -3.953125 C 1.691406 -4.253906 1.484375 -4.539062 1.328125 -4.8125 C 1.171875 -5.082031 1.09375 -5.378906 1.09375 -5.703125 C 1.09375 -6.191406 1.253906 -6.585938 1.578125 -6.890625 C 1.898438 -7.191406 2.328125 -7.34375 2.859375 -7.34375 C 3.222656 -7.34375 3.535156 -7.269531 3.796875 -7.125 C 4.054688 -6.988281 4.253906 -6.804688 4.390625 -6.578125 C 4.535156 -6.347656 4.609375 -6.097656 4.609375 -5.828125 C 4.609375 -5.472656 4.519531 -5.164062 4.34375 -4.90625 C 4.175781 -4.65625 3.945312 -4.421875 3.65625 -4.203125 L 3.125 -3.8125 L 4.703125 -1.875 C 4.796875 -2.0625 4.867188 -2.265625 4.921875 -2.484375 C 4.972656 -2.703125 5 -2.9375 5 -3.1875 L 5.8125 -3.1875 C 5.8125 -2.675781 5.75 -2.265625 5.625 -1.953125 C 5.5 -1.640625 5.367188 -1.394531 5.234375 -1.21875 L 6.234375 0 L 5.234375 0 L 4.71875 -0.625 C 4.476562 -0.375 4.1875 -0.191406 3.84375 -0.078125 C 3.5 0.0351562 3.160156 0.09375 2.828125 0.09375 Z M 4.21875 -1.21875 L 2.46875 -3.328125 L 2.203125 -3.125 C 1.878906 -2.882812 1.65625 -2.648438 1.53125 -2.421875 C 1.414062 -2.191406 1.359375 -2.03125 1.359375 -1.9375 C 1.359375 -1.707031 1.414062 -1.492188 1.53125 -1.296875 C 1.65625 -1.097656 1.820312 -0.9375 2.03125 -0.8125 C 2.25 -0.695312 2.503906 -0.640625 2.796875 -0.640625 C 3.328125 -0.640625 3.800781 -0.832031 4.21875 -1.21875 Z M 2.609375 -4.4375 L 3.078125 -4.78125 C 3.285156 -4.914062 3.453125 -5.0625 3.578125 -5.21875 C 3.703125 -5.375 3.765625 -5.578125 3.765625 -5.828125 C 3.765625 -6.003906 3.679688 -6.179688 3.515625 -6.359375 C 3.359375 -6.535156 3.148438 -6.625 2.890625 -6.625 C 2.703125 -6.625 2.535156 -6.578125 2.390625 -6.484375 C 2.253906 -6.390625 2.144531 -6.269531 2.0625 -6.125 C 1.988281 -5.976562 1.953125 -5.832031 1.953125 -5.6875 C 1.953125 -5.476562 2.015625 -5.269531 2.140625 -5.0625 C 2.273438 -4.863281 2.429688 -4.65625 2.609375 -4.4375 Z M 2.609375 -4.4375 "/></g></g></g><g fill="#ffffff" fill-opacity="1"><g transform="translate(242.347541, 221.154405)"><g><path d="M 4.859375 -5.453125 C 4.816406 -5.816406 4.644531 -6.097656 4.34375 -6.296875 C 4.039062 -6.492188 3.664062 -6.59375 3.21875 -6.59375 C 2.738281 -6.59375 2.351562 -6.476562 2.0625 -6.25 C 1.769531 -6.019531 1.625 -5.734375 1.625 -5.390625 C 1.625 -5.128906 1.703125 -4.914062 1.859375 -4.75 C 2.015625 -4.59375 2.203125 -4.46875 2.421875 -4.375 C 2.640625 -4.289062 2.84375 -4.222656 3.03125 -4.171875 L 3.765625 -3.984375 C 3.953125 -3.929688 4.160156 -3.859375 4.390625 -3.765625 C 4.628906 -3.679688 4.851562 -3.5625 5.0625 -3.40625 C 5.28125 -3.257812 5.457031 -3.066406 5.59375 -2.828125 C 5.738281 -2.597656 5.8125 -2.3125 5.8125 -1.96875 C 5.8125 -1.582031 5.707031 -1.226562 5.5 -0.90625 C 5.300781 -0.59375 5.003906 -0.34375 4.609375 -0.15625 C 4.210938 0.03125 3.738281 0.125 3.1875 0.125 C 2.40625 0.125 1.78125 -0.0546875 1.3125 -0.421875 C 0.851562 -0.796875 0.601562 -1.28125 0.5625 -1.875 L 1.484375 -1.875 C 1.503906 -1.601562 1.59375 -1.375 1.75 -1.1875 C 1.914062 -1.007812 2.125 -0.878906 2.375 -0.796875 C 2.625 -0.710938 2.894531 -0.671875 3.1875 -0.671875 C 3.519531 -0.671875 3.816406 -0.722656 4.078125 -0.828125 C 4.347656 -0.941406 4.5625 -1.097656 4.71875 -1.296875 C 4.875 -1.492188 4.953125 -1.722656 4.953125 -1.984375 C 4.953125 -2.222656 4.882812 -2.421875 4.75 -2.578125 C 4.613281 -2.734375 4.4375 -2.859375 4.21875 -2.953125 C 4 -3.046875 3.765625 -3.128906 3.515625 -3.203125 L 2.609375 -3.453125 C 2.046875 -3.617188 1.597656 -3.851562 1.265625 -4.15625 C 0.929688 -4.457031 0.765625 -4.851562 0.765625 -5.34375 C 0.765625 -5.75 0.875 -6.101562 1.09375 -6.40625 C 1.320312 -6.707031 1.625 -6.941406 2 -7.109375 C 2.375 -7.285156 2.789062 -7.375 3.25 -7.375 C 3.71875 -7.375 4.132812 -7.289062 4.5 -7.125 C 4.863281 -6.957031 5.148438 -6.726562 5.359375 -6.4375 C 5.578125 -6.144531 5.691406 -5.816406 5.703125 -5.453125 Z M 4.859375 -5.453125 "/></g></g></g><g fill="#ffffff" fill-opacity="1"><g transform="translate(253.192998, 221.154405)"><g><path d="M 0.875 0 L 0.875 -7.265625 L 5.265625 -7.265625 L 5.265625 -6.484375 L 1.765625 -6.484375 L 1.765625 -4.03125 L 5.046875 -4.03125 L 5.046875 -3.25 L 1.765625 -3.25 L 1.765625 -0.78125 L 5.328125 -0.78125 L 5.328125 0 Z M 0.875 0 "/></g></g></g><g fill="#ffffff" fill-opacity="1"><g transform="translate(263.640875, 221.154405)"><g><path d="M 0.875 0 L 0.875 -7.265625 L 3.34375 -7.265625 C 3.90625 -7.265625 4.367188 -7.164062 4.734375 -6.96875 C 5.097656 -6.78125 5.367188 -6.519531 5.546875 -6.1875 C 5.722656 -5.851562 5.8125 -5.472656 5.8125 -5.046875 C 5.8125 -4.554688 5.695312 -4.132812 5.46875 -3.78125 C 5.25 -3.425781 4.910156 -3.164062 4.453125 -3 L 6.09375 0 L 5.078125 0 L 3.53125 -2.84375 C 3.476562 -2.84375 3.421875 -2.84375 3.359375 -2.84375 L 1.765625 -2.84375 L 1.765625 0 Z M 1.765625 -3.640625 L 3.328125 -3.640625 C 3.910156 -3.640625 4.320312 -3.765625 4.5625 -4.015625 C 4.8125 -4.265625 4.9375 -4.609375 4.9375 -5.046875 C 4.9375 -5.484375 4.8125 -5.832031 4.5625 -6.09375 C 4.3125 -6.351562 3.894531 -6.484375 3.3125 -6.484375 L 1.765625 -6.484375 Z M 1.765625 -3.640625 "/></g></g></g><g fill="#ffffff" fill-opacity="1"><g transform="translate(274.500533, 221.154405)"><g><path d="M 1.171875 -7.265625 L 3.34375 -1.15625 L 3.421875 -1.15625 L 5.578125 -7.265625 L 6.5 -7.265625 L 3.828125 0 L 2.921875 0 L 0.25 -7.265625 Z M 1.171875 -7.265625 "/></g></g></g><g fill="#ffffff" fill-opacity="1"><g transform="translate(285.729372, 221.154405)"><g><path d="M 1.765625 -7.265625 L 1.765625 0 L 0.875 0 L 0.875 -7.265625 Z M 1.765625 -7.265625 "/></g></g></g><g fill="#ffffff" fill-opacity="1"><g transform="translate(292.840433, 221.154405)"><g><path d="M 6.734375 -5 L 5.859375 -5 C 5.785156 -5.332031 5.644531 -5.613281 5.4375 -5.84375 C 5.238281 -6.070312 5 -6.242188 4.71875 -6.359375 C 4.4375 -6.484375 4.132812 -6.546875 3.8125 -6.546875 C 3.363281 -6.546875 2.960938 -6.429688 2.609375 -6.203125 C 2.253906 -5.984375 1.972656 -5.65625 1.765625 -5.21875 C 1.554688 -4.789062 1.453125 -4.265625 1.453125 -3.640625 C 1.453125 -3.003906 1.554688 -2.46875 1.765625 -2.03125 C 1.972656 -1.601562 2.253906 -1.273438 2.609375 -1.046875 C 2.960938 -0.828125 3.363281 -0.71875 3.8125 -0.71875 C 4.132812 -0.71875 4.4375 -0.773438 4.71875 -0.890625 C 5 -1.015625 5.238281 -1.191406 5.4375 -1.421875 C 5.644531 -1.648438 5.785156 -1.929688 5.859375 -2.265625 L 6.734375 -2.265625 C 6.640625 -1.773438 6.453125 -1.351562 6.171875 -1 C 5.898438 -0.644531 5.554688 -0.375 5.140625 -0.1875 C 4.734375 0 4.289062 0.09375 3.8125 0.09375 C 3.1875 0.09375 2.628906 -0.0546875 2.140625 -0.359375 C 1.660156 -0.660156 1.28125 -1.085938 1 -1.640625 C 0.726562 -2.203125 0.59375 -2.867188 0.59375 -3.640625 C 0.59375 -4.398438 0.726562 -5.0625 1 -5.625 C 1.28125 -6.1875 1.660156 -6.617188 2.140625 -6.921875 C 2.628906 -7.222656 3.1875 -7.375 3.8125 -7.375 C 4.289062 -7.375 4.734375 -7.28125 5.140625 -7.09375 C 5.554688 -6.90625 5.898438 -6.632812 6.171875 -6.28125 C 6.453125 -5.925781 6.640625 -5.5 6.734375 -5 Z M 6.734375 -5 "/></g></g></g><g fill="#ffffff" fill-opacity="1"><g transform="translate(304.580445, 221.154405)"><g><path d="M 0.875 0 L 0.875 -7.265625 L 5.265625 -7.265625 L 5.265625 -6.484375 L 1.765625 -6.484375 L 1.765625 -4.03125 L 5.046875 -4.03125 L 5.046875 -3.25 L 1.765625 -3.25 L 1.765625 -0.78125 L 5.328125 -0.78125 L 5.328125 0 Z M 0.875 0 "/></g></g></g><g fill="#ffffff" fill-opacity="1"><g transform="translate(315.028328, 221.154405)"><g><path d="M 4.859375 -5.453125 C 4.816406 -5.816406 4.644531 -6.097656 4.34375 -6.296875 C 4.039062 -6.492188 3.664062 -6.59375 3.21875 -6.59375 C 2.738281 -6.59375 2.351562 -6.476562 2.0625 -6.25 C 1.769531 -6.019531 1.625 -5.734375 1.625 -5.390625 C 1.625 -5.128906 1.703125 -4.914062 1.859375 -4.75 C 2.015625 -4.59375 2.203125 -4.46875 2.421875 -4.375 C 2.640625 -4.289062 2.84375 -4.222656 3.03125 -4.171875 L 3.765625 -3.984375 C 3.953125 -3.929688 4.160156 -3.859375 4.390625 -3.765625 C 4.628906 -3.679688 4.851562 -3.5625 5.0625 -3.40625 C 5.28125 -3.257812 5.457031 -3.066406 5.59375 -2.828125 C 5.738281 -2.597656 5.8125 -2.3125 5.8125 -1.96875 C 5.8125 -1.582031 5.707031 -1.226562 5.5 -0.90625 C 5.300781 -0.59375 5.003906 -0.34375 4.609375 -0.15625 C 4.210938 0.03125 3.738281 0.125 3.1875 0.125 C 2.40625 0.125 1.78125 -0.0546875 1.3125 -0.421875 C 0.851562 -0.796875 0.601562 -1.28125 0.5625 -1.875 L 1.484375 -1.875 C 1.503906 -1.601562 1.59375 -1.375 1.75 -1.1875 C 1.914062 -1.007812 2.125 -0.878906 2.375 -0.796875 C 2.625 -0.710938 2.894531 -0.671875 3.1875 -0.671875 C 3.519531 -0.671875 3.816406 -0.722656 4.078125 -0.828125 C 4.347656 -0.941406 4.5625 -1.097656 4.71875 -1.296875 C 4.875 -1.492188 4.953125 -1.722656 4.953125 -1.984375 C 4.953125 -2.222656 4.882812 -2.421875 4.75 -2.578125 C 4.613281 -2.734375 4.4375 -2.859375 4.21875 -2.953125 C 4 -3.046875 3.765625 -3.128906 3.515625 -3.203125 L 2.609375 -3.453125 C 2.046875 -3.617188 1.597656 -3.851562 1.265625 -4.15625 C 0.929688 -4.457031 0.765625 -4.851562 0.765625 -5.34375 C 0.765625 -5.75 0.875 -6.101562 1.09375 -6.40625 C 1.320312 -6.707031 1.625 -6.941406 2 -7.109375 C 2.375 -7.285156 2.789062 -7.375 3.25 -7.375 C 3.71875 -7.375 4.132812 -7.289062 4.5 -7.125 C 4.863281 -6.957031 5.148438 -6.726562 5.359375 -6.4375 C 5.578125 -6.144531 5.691406 -5.816406 5.703125 -5.453125 Z M 4.859375 -5.453125 "/></g></g></g><g fill="#ffffff" fill-opacity="1"><g transform="translate(298.740211, 202.217965)"><g><path d="M 14.253906 1.078125 C 18.25 1.378906 21.503906 -0.0351562 23.976562 -3.253906 C 26.015625 -5.941406 27.199219 -9.480469 27.535156 -13.910156 C 27.699219 -16.085938 27.589844 -18.101562 27.292969 -19.960938 C 26.953125 -21.824219 26.382812 -23.527344 25.621094 -24.984375 C 23.660156 -28.539062 20.660156 -30.472656 16.660156 -30.773438 C 12.621094 -31.078125 9.363281 -29.621094 6.933594 -26.394531 C 5.917969 -25.074219 5.097656 -23.476562 4.523438 -21.683594 C 3.910156 -19.894531 3.539062 -17.914062 3.375 -15.738281 C 3.039062 -11.308594 3.679688 -7.632812 5.292969 -4.667969 C 7.207031 -1.117188 10.210938 0.773438 14.253906 1.078125 Z M 16.289062 -25.863281 C 17.375 -25.78125 18.316406 -25.492188 19.066406 -24.996094 C 19.816406 -24.503906 20.425781 -23.933594 20.894531 -23.199219 C 21.363281 -22.464844 21.742188 -21.691406 22.027344 -20.839844 C 22.269531 -19.992188 22.425781 -19.148438 22.535156 -18.3125 C 22.648438 -17.472656 22.675781 -16.683594 22.667969 -15.984375 C 22.65625 -15.285156 22.660156 -14.71875 22.625 -14.285156 C 22.59375 -13.847656 22.503906 -13.242188 22.40625 -12.550781 C 22.3125 -11.859375 22.164062 -11.085938 21.933594 -10.316406 C 21.695312 -9.503906 21.417969 -8.695312 21.050781 -7.890625 C 20.640625 -7.09375 20.148438 -6.386719 19.574219 -5.730469 C 19 -5.074219 18.308594 -4.601562 17.496094 -4.226562 C 16.679688 -3.851562 15.710938 -3.75 14.625 -3.832031 C 13.496094 -3.917969 12.59375 -4.160156 11.84375 -4.652344 C 11.097656 -5.148438 10.441406 -5.722656 9.972656 -6.457031 C 9.503906 -7.191406 9.125 -7.960938 8.882812 -8.8125 C 8.597656 -9.664062 8.441406 -10.503906 8.332031 -11.34375 C 8.214844 -12.140625 8.1875 -12.929688 8.199219 -13.625 C 8.207031 -14.324219 8.253906 -14.933594 8.285156 -15.367188 C 8.320312 -15.804688 8.363281 -16.367188 8.457031 -17.058594 C 8.554688 -17.75 8.699219 -18.527344 8.9375 -19.339844 C 9.171875 -20.152344 9.453125 -20.960938 9.863281 -21.761719 C 10.230469 -22.5625 10.71875 -23.269531 11.292969 -23.925781 C 11.867188 -24.582031 12.601562 -25.050781 13.417969 -25.425781 C 14.230469 -25.800781 15.160156 -25.949219 16.289062 -25.863281 Z M 16.289062 -25.863281 "/></g></g></g><g clip-path="url(#0b90a5ed74)"><g clip-path="url(#7dbd7c2fa3)"><g clip-path="url(#03ce41f795)"><path fill="#ff7a00" d="M 318.542969 172.449219 C 312.832031 171.9375 307.570312 178.5625 306.785156 187.253906 C 306.003906 195.941406 310 203.402344 315.710938 203.914062 C 318.882812 204.203125 321.917969 202.28125 324.121094 199.03125 C 321.503906 205.128906 317.003906 209.054688 312.253906 208.625 C 305.457031 208.015625 300.742188 198.734375 301.714844 187.894531 C 302.691406 177.058594 308.992188 168.765625 315.785156 169.378906 C 318.871094 169.65625 321.523438 171.722656 323.414062 174.90625 C 322.035156 173.5 320.378906 172.617188 318.542969 172.449219 " fill-opacity="1" fill-rule="nonzero"/></g></g></g><g clip-path="url(#288bd0518d)"><g clip-path="url(#985fc5408f)"><g clip-path="url(#d37f325796)"><path fill="#ff7a00" d="M 300.613281 179.511719 C 300.03125 180.894531 299.582031 182.328125 299.238281 183.785156 L 298.378906 184.257812 C 298.511719 183.605469 298.660156 182.960938 298.832031 182.316406 C 299.046875 181.484375 299.308594 180.667969 299.605469 179.859375 Z M 298.367188 179.089844 C 297.710938 180.609375 297.210938 182.191406 296.847656 183.804688 L 296.160156 182.753906 C 296.203125 182.589844 296.238281 182.421875 296.28125 182.257812 C 296.683594 180.710938 297.242188 179.207031 297.90625 177.753906 Z M 295.324219 187.535156 C 295.421875 186.390625 295.605469 185.261719 295.839844 184.140625 L 296.554688 185.257812 C 296.429688 185.980469 296.320312 186.707031 296.246094 187.433594 C 296.160156 188.363281 296.117188 189.296875 296.113281 190.230469 L 295.203125 189.25 C 295.230469 188.675781 295.265625 188.105469 295.324219 187.535156 Z M 295.226562 192.898438 C 295.175781 192.105469 295.160156 191.316406 295.164062 190.523438 L 296.140625 191.648438 C 296.191406 192.863281 296.328125 194.070312 296.542969 195.265625 L 295.335938 194.230469 C 295.289062 193.789062 295.25 193.34375 295.226562 192.898438 Z M 296.050781 198.191406 C 295.847656 197.398438 295.683594 196.589844 295.550781 195.78125 L 296.84375 196.707031 C 296.996094 197.347656 297.167969 197.988281 297.378906 198.617188 C 297.457031 198.855469 297.542969 199.097656 297.628906 199.332031 L 296.148438 198.527344 C 296.117188 198.417969 296.082031 198.304688 296.050781 198.191406 Z M 298.796875 198.917969 C 298.730469 198.695312 298.660156 198.476562 298.601562 198.253906 C 298.445312 197.632812 298.3125 197.007812 298.199219 196.378906 L 298.917969 195.6875 C 299.058594 196.449219 299.238281 197.199219 299.453125 197.941406 Z M 297.734375 191.941406 L 298.46875 191.386719 C 298.496094 192.394531 298.574219 193.402344 298.710938 194.398438 L 298 195.148438 C 297.898438 194.421875 297.820312 193.691406 297.777344 192.957031 C 297.757812 192.617188 297.746094 192.28125 297.734375 191.941406 Z M 298.585938 187.644531 C 298.515625 188.414062 298.480469 189.1875 298.464844 189.964844 L 297.714844 190.53125 C 297.726562 189.550781 297.773438 188.570312 297.875 187.59375 C 297.925781 186.988281 298.007812 186.386719 298.101562 185.789062 L 298.925781 185.28125 C 298.785156 186.066406 298.667969 186.855469 298.585938 187.644531 Z M 301.195312 178.238281 L 300.121094 178.550781 C 300.300781 178.128906 300.492188 177.710938 300.691406 177.292969 C 301.480469 175.695312 302.4375 174.164062 303.636719 172.832031 C 304.820312 171.488281 306.257812 170.355469 307.953125 169.609375 C 306.140625 170.003906 304.472656 171.011719 303.066406 172.261719 C 301.664062 173.53125 300.5 175.050781 299.5625 176.691406 C 299.339844 177.074219 299.132812 177.464844 298.9375 177.859375 L 298.449219 176.644531 C 299.179688 175.261719 300.035156 173.9375 301.085938 172.773438 C 302.269531 171.429688 303.707031 170.292969 305.402344 169.546875 C 303.589844 169.945312 301.921875 170.953125 300.515625 172.203125 C 299.113281 173.472656 297.945312 174.992188 297.011719 176.632812 C 295.125 179.917969 294.082031 183.628906 293.695312 187.375 C 293.359375 191.121094 293.628906 194.964844 294.828125 198.554688 C 295.417969 200.347656 296.242188 202.074219 297.347656 203.605469 C 298.457031 205.125 299.855469 206.46875 301.519531 207.285156 C 300.050781 206.160156 298.898438 204.738281 298.019531 203.175781 C 297.355469 202.019531 296.847656 200.785156 296.4375 199.519531 L 298.054688 200.386719 C 298.554688 201.539062 299.164062 202.648438 299.894531 203.667969 C 301.007812 205.183594 302.40625 206.53125 304.070312 207.34375 C 302.601562 206.222656 301.449219 204.796875 300.570312 203.234375 C 299.976562 202.199219 299.511719 201.097656 299.125 199.96875 L 299.792969 199.039062 C 300.378906 200.753906 301.175781 202.40625 302.238281 203.878906 C 303.347656 205.394531 304.746094 206.742188 306.410156 207.554688 C 304.941406 206.433594 303.789062 205.007812 302.910156 203.445312 C 302.015625 201.890625 301.398438 200.191406 300.941406 198.464844 C 300.5 196.730469 300.214844 194.957031 300.117188 193.167969 C 300.003906 191.382812 300.03125 189.585938 300.214844 187.804688 C 300.367188 186.019531 300.710938 184.253906 301.171875 182.527344 C 301.621094 180.796875 302.257812 179.117188 303.027344 177.503906 C 303.820312 175.90625 304.777344 174.375 305.976562 173.042969 C 307.160156 171.699219 308.597656 170.5625 310.292969 169.816406 C 308.480469 170.214844 306.8125 171.222656 305.40625 172.472656 C 304.003906 173.742188 302.835938 175.261719 301.902344 176.902344 C 301.648438 177.339844 301.417969 177.785156 301.195312 178.238281 " fill-opacity="1" fill-rule="nonzero"/></g></g></g></svg>